<!-- 
  Based on Material design icons by Google - https://github.com/google/material-design-icons
  which are licensed under the Apache License 2.0. Icon 'apps (outlined)'.

  File is modified. Modifications are licensed under the MIT license.
-->
<svg xmlns="http://www.w3.org/2000/svg" viewBox="0 0 24 24">
  <path d="M8 6a1 1 0 100 2h7a1 1 0 100-2zm0 3a1 1 0 100 2h4a1 1 0 100-2zM5 2a1 1 0 00-1 1v18a1 1 0 001 1h4a1 1 0 100-2H6V4h12v5a1 1 0 102 0V3a1 1 0 00-1-1zm16 11h3v3h-3zm-4 0h3v3h-3zm-4 0h3v3h-3zm0 4h3v3h-3zm0 4h3v3h-3zm4 0h3v3h-3zm4 0h3v3h-3zm0-4h3v3h-3zm-4 0h3v3h-3z" />
</svg>
