<svg xmlns="http://www.w3.org/2000/svg" viewBox="0 0 24 24">
    <path
        d="M2.5 14h1a.5.5 0 0 1 .5.5v7a.5.5 0 0 1-.5.5h-1a.5.5 0 0 1-.5-.5v-7a.5.5 0 0 1 .5-.5zm3-6h1a.5.5 0 0 1 .5.5v13a.5.5 0 0 1-.5.5h-1a.5.5 0 0 1-.5-.5v-13a.5.5 0 0 1 .5-.5zm3 6h1a.5.5 0 0 1 .5.5v7a.5.5 0 0 1-.5.5h-1a.5.5 0 0 1-.5-.5v-7a.5.5 0 0 1 .5-.5zm3-12h1a.5.5 0 0 1 .5.5v19a.5.5 0 0 1-.5.5h-1a.5.5 0 0 1-.5-.5v-19a.5.5 0 0 1 .5-.5zm3 6h1a.5.5 0 0 1 .5.5v13a.5.5 0 0 1-.5.5h-1a.5.5 0 0 1-.5-.5v-13a.5.5 0 0 1 .5-.5zm3 6h1a.5.5 0 0 1 .5.5v7a.5.5 0 0 1-.5.5h-1a.5.5 0 0 1-.5-.5v-7a.5.5 0 0 1 .5-.5zm3 4h1a.5.5 0 0 1 .5.5v3a.5.5 0 0 1-.5.5h-1a.5.5 0 0 1-.5-.5v-3a.5.5 0 0 1 .5-.5z" />
</svg>
