<!-- 
  Copyright 2022, Axis Communications
-->

<svg xmlns="http://www.w3.org/2000/svg" viewBox="0 0 24 24">
  <path
    d="M22 12a9.969 9.969 0 0 0-2.93-7.07l-1.06 1.06a8.5 8.5 0 0 1 0 12.02l1.06 1.06A9.969 9.969 0 0 0 22 12zM3.5 12a8.481 8.481 0 0 1 2.49-6.01L4.93 4.93a9.995 9.995 0 0 0 0 14.14l1.06-1.06A8.481 8.481 0 0 1 3.5 12zm14 0a5.513 5.513 0 0 1-1.61 3.89l1.06 1.06a7 7 0 0 0 0-9.9l-1.06 1.06A5.513 5.513 0 0 1 17.5 12zM7.05 16.95l1.06-1.06a5.5 5.5 0 0 1 0-7.78L7.05 7.05a7 7 0 0 0 0 9.9zM10.3 8.5v6.429l5-3.214z" />
</svg>
