<!-- 
  Based on Material design icons by Google - https://github.com/google/material-design-icons
  which are licensed under the Apache License 2.0. Icon 'crop_free (filled)'.

  File is modified. Modifications are licensed under the MIT license.
-->
<svg xmlns="http://www.w3.org/2000/svg" viewBox="0 0 24 24">
  <path d="M5 15H3v4a2 2 0 002 2h4v-2H5zM5 5h4V3H5a2 2 0 00-2 2v4h2zM19 19h-4v2h4a2 2 0 002-2v-4h-2zM19 3h-4v2h4v4h2V5a2 2 0 00-2-2zM12.77 7.17h-1.52l-3.2 8.6h1.47l.84-2.38h3.28l.85 2.38H16zm-2 5l.77-2.17A12.77 12.77 0 0012 8.38c0 .15.11.4.21.74s.19.58.24.73l.81 2.34z" />
</svg>
