<svg xmlns="http://www.w3.org/2000/svg" viewBox="0 0 24 24">
  <path d="M21.18 17.58a2 2 0 01.46 0l-.09.85a1.84 1.84 0 00-.41 0 1.16 1.16 0 00-.89.35 1.31 1.31 0 00-.34.94V22H19v-4.34h.72l.12.76h.05a1.76 1.76 0 01.56-.62 1.31 1.31 0 01.73-.22zM17 22l-.13-.57a1.3 1.3 0 01-.54.47 1.78 1.78 0 01-.81.17 1.59 1.59 0 01-1.17-.39 1.6 1.6 0 01-.39-1.18v-2.84h.93v2.66a1.11 1.11 0 00.2.74.77.77 0 00.64.25 1 1 0 00.85-.34 1.92 1.92 0 00.27-1.16v-2.15h.92V22zm-4.14-2.19a2.38 2.38 0 01-.55 1.65 1.92 1.92 0 01-1.51.59 2.1 2.1 0 01-1.07-.27A1.74 1.74 0 019 21a2.67 2.67 0 01-.25-1.19 2.38 2.38 0 01.53-1.64 1.94 1.94 0 011.52-.59 1.92 1.92 0 011.49.6 2.36 2.36 0 01.57 1.63zm-3.15 0c0 1 .37 1.49 1.11 1.49.74 0 1.09-.49 1.09-1.49s-.37-1.48-1.1-1.48a.94.94 0 00-.84.38 2 2 0 00-.26 1.1zM7.62 22h-.94v-2.6H4.05V22h-.94v-5.73h.94v2.33h2.63v-2.33h.94zM5.9 15a6.7 6.7 0 01-1.24-3.9 7.2 7.2 0 0114.4 0 6.83 6.83 0 01-1.3 4h2.1a9.1 9.1 0 001-4 9 9 0 00-18-.1 8.77 8.77 0 001 4h2zm6.36-8.39H11V12l4.7 2.8.7-1.1-4-2.4V6.61z" />
</svg>
