<!-- 
  Based on Material design icons by Google - https://github.com/google/material-design-icons
  which are licensed under the Apache License 2.0. Icon 'schedule (rounded)'.

  File is modified. Modifications are licensed under the MIT license.
-->
<svg xmlns="http://www.w3.org/2000/svg" viewBox="0 0 24 24">
  <path d="M18.77 22h-.92v-2.68a1.17 1.17 0 00-.2-.74.77.77 0 00-.64-.25 1 1 0 00-.85.35 1.87 1.87 0 00-.27 1.15V22H15v-4.34h.72l.13.57a1.26 1.26 0 01.56-.48 1.86 1.86 0 01.79-.17 1.39 1.39 0 011.56 1.58zm-6.09-5.48a.49.49 0 01.14-.38.51.51 0 01.38-.14.52.52 0 01.38.14.49.49 0 01.13.38.51.51 0 01-.13.37.56.56 0 01-.38.13.54.54 0 01-.38-.13.51.51 0 01-.14-.37zm1 5.46h-.92v-4.32h.92zM7.92 22l-1.66-4.79c0 .71.07 1.37.07 2V22h-.88v-5.73h1.32l1.58 4.54L10 16.27h1.32V22h-.9v-2.84-1.11-.83L8.74 22zM5.9 15a6.7 6.7 0 01-1.24-3.9 7.2 7.2 0 0114.4 0 6.83 6.83 0 01-1.3 4h2.1a9.1 9.1 0 001-4 9 9 0 00-18-.1 8.77 8.77 0 001 4h2zm6.36-8.39H11V12l4.7 2.8.7-1.1-4-2.4V6.61z" />
</svg>
