<svg xmlns="http://www.w3.org/2000/svg" viewBox="0 0 24 24">
  <path
    d="M5.994 2a1.998 1.998 0 00-1.99 2l-.008 9h2.008V4h7v5h5v4h2V8L14 2H5.994zm5.664 12.191a2.896 2.896 0 00-1.615.566 1.881 1.881 0 00-.7 1.547 2.103 2.103 0 00.44 1.342 3.648 3.648 0 001.516.996 5.017 5.017 0 011.375.723.976.976 0 01.334.746.945.945 0 01-.363.781 1.789 1.789 0 01-1.125.29 4.783 4.783 0 01-1.125-.147 5.867 5.867 0 01-1.141-.395v1.213a4.975 4.975 0 002.18.414 3.302 3.302 0 002.09-.595 1.978 1.978 0 00.755-1.645v-.002a2.118 2.118 0 00-.187-.922 1.982 1.982 0 00-.59-.703 5.814 5.814 0 00-1.268-.672 7.131 7.131 0 01-1.062-.51 1.316 1.316 0 01-.426-.412 1.008 1.008 0 01-.129-.523.89.89 0 01.322-.717 1.435 1.435 0 01.946-.271 4.9 4.9 0 011.869.439l.408-1.045a5.497 5.497 0 00-2.244-.496 2.896 2.896 0 00-.26-.002zm-5.64.004a3.92 3.92 0 00-1.877.488 3.201 3.201 0 00-1.297 1.408 4.828 4.828 0 00-.45 2.143 4.37 4.37 0 00.924 2.988 3.349 3.349 0 002.649 1.045 5.878 5.878 0 002.094-.35v-1.101c-.337.103-.661.187-.973.254a4.625 4.625 0 01-.967.101 2.152 2.152 0 01-1.764-.74 3.373 3.373 0 01-.611-2.187 3.351 3.351 0 01.635-2.164 2.116 2.116 0 011.74-.784 3.04 3.04 0 01.934.143 6.955 6.955 0 01.84.33l.46-1.07a4.953 4.953 0 00-2.222-.504 3.92 3.92 0 00-.116 0zm8.746.113l2.74 7.852h1.352l2.75-7.852h-1.332l-1.637 4.86c-.061.172-.14.438-.237.795-.096.358-.168.673-.214.945a9.56 9.56 0 00-.19-.819 10.235 10.235 0 00-.273-.9l-1.637-4.88h-1.322z" />
</svg>
