<svg xmlns="http://www.w3.org/2000/svg" viewBox="0 0 24 24">
  <path d="M14.37 14.69c.48.8 1.1 2.06 1.22 3.61C15.79 20.77 12 21 12 21v-5.4c-.4 0-.77-.08-1.14-.2a8.3 8.3 0 01-2.5 2.87c-2.03 1.4-4.12-1.77-4.12-1.77l4.67-2.71c-.19-.34-.34-.7-.42-1.08a8.27 8.27 0 01-3.7-.74C2.55 10.9 4.24 7.5 4.24 7.5l4.67 2.71c.2-.34.44-.64.74-.9A8.24 8.24 0 018.43 5.7C8.23 3.23 12 3 12 3v5.4c.4 0 .78.08 1.13.2a8.3 8.3 0 012.5-2.87c2.04-1.4 4.12 1.76 4.12 1.76L15.1 10.2c.2.33.35.7.42 1.08.93-.01 2.32.09 3.7.74 2.24 1.07.54 4.47.54 4.47l-4.67-2.7a3.2 3.2 0 01-.71.9zm-2.36-4.5a1.8 1.8 0 100 3.6 1.8 1.8 0 000-3.6z" />
</svg>
