<svg xmlns="http://www.w3.org/2000/svg" width="40" height="32" viewBox="0 0 40 32">
  <rect width="40" height="32" rx="4" fill="currentColor"/>
  <g transform="translate(8 4)">
    <path d="M0,0H24V24H0Z" fill="none"/>
    <path d="M22.556,3H5.444A2.452,2.452,0,0,0,3,5.444V22.556A2.452,2.452,0,0,0,5.444,25H22.556A2.452,2.452,0,0,0,25,22.556V5.444A2.452,2.452,0,0,0,22.556,3ZM21.333,22.556H6.667a1.226,1.226,0,0,1-1.222-1.222V6.667A1.226,1.226,0,0,1,6.667,5.444H21.333a1.226,1.226,0,0,1,1.222,1.222V21.333A1.226,1.226,0,0,1,21.333,22.556ZM15.907,14.99l-2.872,3.691-1.907-2.3a.61.61,0,0,0-.953.012L8.048,19.121a.612.612,0,0,0,.477.99H19.5a.611.611,0,0,0,.489-.978L16.872,14.99A.608.608,0,0,0,15.907,14.99Z" transform="translate(-2 -2)" fill="#fff"/>
  </g>
</svg>
