<!-- 
  Based on Material design icons by Google - https://github.com/google/material-design-icons
  which are licensed under the Apache License 2.0. Icon 'launch (rounded)'.

  File is modified. Modifications are licensed under the MIT license.
-->
<svg xmlns="http://www.w3.org/2000/svg" viewBox="0 0 24 24">
  <path d="M17 18H7a1 1 0 01-1-1V7a1 1 0 011-1h2a1 1 0 000-2H6a2 2 0 00-2 2v12a2.006 2.006 0 002 2h12a2.006 2.006 0 002-2v-4a1 1 0 00-2 0v3a1 1 0 01-1 1zM13 5a1 1 0 001 1h2.59l-6.13 6.13a1 1 0 001.41 1.41L18 7.41V10a1 1 0 002 0V4h-6a1 1 0 00-1 1z" />
</svg>
