<!-- 
  Based on Material design icons by Google - https://github.com/google/material-design-icons
  which are licensed under the Apache License 2.0. Icon 'lightbulb (outlined)'.

  File is modified. Modifications are licensed under the MIT license.
-->
<svg xmlns="http://www.w3.org/2000/svg" viewBox="0 0 24 24">
    <path d="M12 2a7 7 0 00-4 12.74V17a1 1 0 001 1h2v-2h-1v-2.3l-.85-.6a5 5 0 116.84-1.1h2.33A7 7 0 0012 2zm.9 11.86V21h1.51v-7.14zm3.3 0V21h1.52v-2.74h.81l1.7 2.74h1.68l-2.1-3.11c.4-.16.73-.43.99-.77.23-.33.32-.61.34-1.12s-.22-1.22-.7-1.61a3.86 3.86 0 00-2.15-.53zm1.52 1.24h.46c.4 0 .75.05 1.08.22.24.15.35.43.35.72s-.1.58-.34.75a2 2 0 01-1.06.24h-.49zM9 20v1a1 1 0 001 1h1v-2z"/>
</svg>
