<svg xmlns="http://www.w3.org/2000/svg" viewBox="0 0 24 24">
  <path d="M10.304 15.959l1.131-1.131 2.687 2.687a1 1 0 001.415 0l1.98-1.98a1 1 0 000-1.414l-2.687-2.687 1.13-1.132 3.112 3.111a2 2 0 010 2.829l-2.828 2.828a2 2 0 01-2.829 0zm-2.263-2.263l-3.11-3.111a2 2 0 010-2.828l2.828-2.829a2 2 0 012.828 0l3.111 3.111-1.131 1.132L9.88 6.484a1 1 0 00-1.414 0l-1.98 1.98a1 1 0 000 1.414l2.687 2.687-1.132 1.131zm.897-2.876a1 1 0 010-1.414l.472-.472a1 1 0 011.414 0l4.242 4.243a1 1 0 010 1.414l-.471.471a1 1 0 01-1.414 0z" />
</svg>
