<!-- 
  Based on Material design icons by Google - https://github.com/google/material-design-icons
  which are licensed under the Apache License 2.0. Icon 'link (outline)'.

  File is modified. Modifications are licensed under the MIT license.
-->
<svg xmlns="http://www.w3.org/2000/svg" viewBox="0 0 24 24">
  <path d="M17 7h-4v2h4c1.65 0 3 1.35 3 3s-1.35 3-3 3h-4v2h4c2.76 0 5-2.24 5-5s-2.24-5-5-5zm-6 8H7c-1.65 0-3-1.35-3-3s1.35-3 3-3h4V7H7c-2.76 0-5 2.24-5 5s2.24 5 5 5h4v-2zm-3-4h8v2H8z"/>
</svg>