<!--
  Based on Material design icons by Google - https://github.com/google/material-design-icons
  which are licensed under the Apache License 2.0. Icon 'crop_free (filled)'.

  File is modified. Modifications are licensed under the MIT license.
-->
<svg xmlns="http://www.w3.org/2000/svg" viewBox="0 0 24 24">
  <path d="M5 15H3v4a2 2 0 0 0 2 2h4v-2H5zM5 5h4V3H5a2 2 0 0 0-2 2v4h2zm14-2h-4v2h4v4h2V5a2 2 0 0 0-2-2zm0 16h-4v2h4a2 2 0 0 0 2-2v-4h-2zM8 16V8h2.58L12 13.37 13.42 8H16v8h-2V9.8L12.76 16h-1.53L10 9.8V16z" />
</svg>
