<!-- 
  Based on Material design icons by Google - https://github.com/google/material-design-icons
  which are licensed under the Apache License 2.0. Icon 'extension (filled)'.

  File is modified. Modifications are licensed under the MIT license.
-->
<svg xmlns="http://www.w3.org/2000/svg" viewBox="0 0 24 24">
  <path d="M 20.89,11 H 20 V 9 l -3.29,3.29 a 1,1 0 0 1 -1.41,0 L 11.71,8.71 a 1,1 0 0 1 0,-1.41 L 15,4 H 13 V 3.2 A 3.13,3.13 0 0 0 10.14,0 3,3 0 0 0 7,3 V 4 H 3 A 2,2 0 0 0 1,6 v 5 h 0.86 a 3.06,3.06 0 0 1 3,2.05 A 3,3 0 0 1 2,17 H 1 v 4 a 2,2 0 0 0 2,2 H 7 V 22.2 A 3.13,3.13 0 0 1 9.86,19 3,3 0 0 1 13,22 v 1 h 5 a 2,2 0 0 0 2,-2 v -4 h 1 A 3,3 0 0 0 23.85,13.05 3.06,3.06 0 0 0 20.89,11 Z M 14.000384,8.5029377 19.501675,3.0016469 21.000741,4.5007131 15.49945,10.002004 Z M 16,1 h 7 v 7 z" />
</svg>
