<!-- 
  Based on Material design icons by Google - https://github.com/google/material-design-icons
  which are licensed under the Apache License 2.0. Icon 'water_drop (filled)'.

  File is modified. Modifications are licensed under the MIT license.
-->
<svg xmlns="http://www.w3.org/2000/svg" viewBox="0 0 24 24">
    <path d="M12 5c-3.2 2.73-4.8 5.1-4.8 7.08a4.8 4.8 0 009.6 0c0-2-1.6-4.35-4.8-7.08zM6.66 6.27a.6.6 0 00-.4.22 10.03 10.03 0 00-2.2 5.46c0 2.74 2.1 5.44 2.18 5.55a.6.6 0 00.48.23.6.6 0 00.47-.97c-.02-.03-1.93-2.48-1.93-4.81a8.96 8.96 0 011.92-4.7.6.6 0 00-.52-.98zm10.68 0a.6.6 0 00-.52.98 8.96 8.96 0 011.92 4.7c0 2.33-1.9 4.78-1.93 4.81a.6.6 0 00.47.97.6.6 0 00.48-.23c.09-.12 2.18-2.81 2.18-5.55a10.03 10.03 0 00-2.2-5.46.6.6 0 00-.4-.22zM3.54 7.54a.6.6 0 00-.61.34A11.08 11.08 0 002 11.95a11.13 11.13 0 00.93 4.07.6.6 0 00.54.35.6.6 0 00.55-.85 10 10 0 01-.82-3.57 10.01 10.01 0 01.82-3.57.6.6 0 00-.48-.84zm17.05.04a.6.6 0 00-.6.8 10.01 10.01 0 01.81 3.57 10 10 0 01-.82 3.57.6.6 0 00.55.85.6.6 0 00.54-.35 11.13 11.13 0 00.93-4.07 11.08 11.08 0 00-.93-4.07.6.6 0 00-.48-.3z"/>
</svg>
