<svg xmlns="http://www.w3.org/2000/svg" viewBox="0 0 24 24">
  <path d="M11.122 13.743c-1.518.773-2.982 1.571-3.354 1.917-.293.294-.479.693-.479 1.092 0 .293.107.586.293.772.186.186.479.293.772.293.399 0 .771-.16 1.09-.48.294-.293 1.012-1.517 1.917-3.354l-.027-.24zM13 11a1 1 0 01-1 1 1 1 0 01-1-1 1 1 0 011-1 1 1 0 011 1m4.989-7H6.01A1.01 1.01 0 005 5.011V18.99A1.01 1.01 0 006.011 20H17.99c.558 0 1.011-.453 1.011-1.011V5.01A1.013 1.013 0 0017.989 4zM6.517 5.011a.505.505 0 11-.506.506.49.49 0 01.506-.506zM12 15.981l-.16-.027c-.985 1.836-1.304 2.183-1.437 2.29-.532.531-1.278.85-1.996.85-.64 0-1.251-.239-1.704-.691a2.35 2.35 0 01-.692-1.704c0-.719.32-1.465.852-1.997.187-.186.585-.452 1.145-.799a4.926 4.927 0 01-.986-2.954 4.998 5 0 015.004-5.006 4.998 5 0 015.004 5.006c-.026 2.794-2.262 5.031-5.03 5.031zm5.989 2.502a.506.506 0 11-1.012 0V17.47a.506.506 0 111.012 0zm-.507-12.486a.505.505 0 11.507-.506.49.49 0 01-.507.506z" />
</svg>
