<svg xmlns="http://www.w3.org/2000/svg" viewBox="0 0 24 24">
  <path d="M16.52 17.45a2.49 2.49 0 01-1.28-.67 16.62 16.62 0 00-7.79 4.12 9.92 9.92 0 008.91.09 16.67 16.67 0 00.16-3.54zM14.5 15a18.4 18.4 0 01-3.84-1.16 18.5 18.5 0 01-2-1 2.45 2.45 0 01-2.81.41 17.68 17.68 0 00-1.76 4.93 10 10 0 002 1.92 18.13 18.13 0 018.42-4.67 2.49 2.49 0 01-.01-.43zm7.07-.11a18.13 18.13 0 01-2.09.32A2.49 2.49 0 0118 17.28 18.08 18.08 0 0118 20a10 10 0 003.57-5.11zM12 3.5a2.48 2.48 0 011.85.83 17.61 17.61 0 013.37-.85 9.9 9.9 0 00-8.49-.92 18.08 18.08 0 012 1.3A2.48 2.48 0 0112 3.5zM5.88 8.77A2.47 2.47 0 017 8.5a2.47 2.47 0 01.34 0 16.94 16.94 0 012.24-1.9A2.39 2.39 0 019.72 5 16.61 16.61 0 007 3.36a10 10 0 00-3.16 2.87 16.56 16.56 0 002.04 2.54zM4.5 11a2.47 2.47 0 01.31-1.18A18 18 0 013 7.64a9.9 9.9 0 000 8.69 18.79 18.79 0 011.75-4.26A2.48 2.48 0 014.5 11zm11.11 1.92a16.84 16.84 0 00-2.54-4.67 2.44 2.44 0 01-2.63-.32 15.92 15.92 0 00-1.6 1.38 2.47 2.47 0 01.61 2.2 17 17 0 001.81.92 16.84 16.84 0 003.74 1.1 2.51 2.51 0 01.61-.61zM14.5 6a2.47 2.47 0 01-.34 1.23A18.36 18.36 0 0117 12.5a2.49 2.49 0 012.1 1.23 16.64 16.64 0 002.76-.47 9.85 9.85 0 00-3-8.46 15.94 15.94 0 00-4.46.94 2.47 2.47 0 01.1.26z" />
</svg>
