<!-- 
  Based on Material design icons by Google - https://github.com/google/material-design-icons
  which are licensed under the Apache License 2.0. Icon 'account_box (filled)'.

  File is modified. Modifications are licensed under the MIT license.
-->
<svg xmlns="http://www.w3.org/2000/svg" viewBox="0 0 24 24">
  <path d="M19.14 3h-14a2 2 0 00-2 2v14a2 2 0 002 2h14a2 2 0 002-2V5a2 2 0 00-2-2zm-7 3a3 3 0 11-3 3 3 3 0 013-3zm.76 12H6.14v-1c0-2 4-3.1 6-3.1a8.83 8.83 0 011.51.15 4.14 4.14 0 00-1 2.66A4 4 0 0012.9 18zm7-.24l-.63 1.09-.94-.23a1.16 1.16 0 01-.55.31l-.24.94h-1.25l-.23-.87a1.16 1.16 0 01-.55-.31l-.94.23-.63-1.09.7-.71v-.63l-.7-.7.63-1.1.94.24a1.27 1.27 0 01.55-.32l.23-.94h1.25l.24.94a1.27 1.27 0 01.55.32l.94-.24.63 1.1-.71.7v.63zm-3.06-2.57a1.57 1.57 0 101.57 1.57 1.57 1.57 0 00-1.57-1.57z" />
</svg>
