<svg xmlns="http://www.w3.org/2000/svg" viewBox="0 0 24 24">
  <path d="M2.19 9.95l-.05.06-.03.07c-.15.32-.15.69 0 1.01l-.02-.04 2.87 7.33c.26.7 1.17.98 1.77.53a8.65 8.65 0 012.9-1.41l.65 1.3a.91.91 0 001.63-.82l-.4-.8.49-.01h.01c1.91-.02 3.78.6 5.31 1.74.6.45 1.52.17 1.77-.53l2.81-7.2c.18-.46.11-.97-.17-1.37A11.86 11.86 0 0012 4.7c-3.91 0-7.6 1.98-9.81 5.24zM12 6.53c3.22.02 6.24 1.56 8.12 4.17l-2.44 6.26a10.54 10.54 0 00-7.05-1.53l-2.38-4.75a.91.91 0 10-1.63.82l2.16 4.33c-.86.27-1.66.63-2.42 1.11L3.89 10.7a10.14 10.14 0 018.12-4.16zm6.4 10.92z"/>
</svg>
